<?xml version="1.0" encoding="iso-8859-1"?>
<!-- Generator: Adobe Illustrator 16.0.0, SVG Export Plug-In . SVG Version: 6.00 Build 0)  -->
<!DOCTYPE svg PUBLIC "-//W3C//DTD SVG 1.1//EN" "http://www.w3.org/Graphics/SVG/1.1/DTD/svg11.dtd">
<svg version="1.1" id="Capa_1" xmlns="http://www.w3.org/2000/svg" xmlns:xlink="http://www.w3.org/1999/xlink" x="0px" y="0px"
	 width="585.781px" height="585.781px" viewBox="0 0 585.781 585.781" style="enable-background:new 0 0 585.781 585.781;"
	 xml:space="preserve">
<g>
	<g>
		<path fill="#FFAB40" d="M293.812,25.877c-1.372-0.952-3.591-1.042-4.958-0.086L221.372,73.36c-1.367,0.961-2.094,0.335-2.094-1.334V39.079
			c0-1.669-2.118-2.553-3.792-2.553h-43.839c-1.668,0-2.347,0.884-2.347,2.553v67.951c0,1.668-1.449,3.801-2.816,4.757
			L0.956,228.206c-1.367,0.961-1.291,2.128,0.378,2.128h73.569c1.669,0,2.983,0.569,2.983,2.237v325.014
			c0,1.669,1.396,3.079,3.065,3.079h420.253c1.669,0,3.309-1.405,3.309-3.079V232.571c0-1.668,1.066-2.237,2.739-2.237h77.098
			c1.674,0,1.913-1.167,0.541-2.118L293.812,25.877z M403.748,215.392c12.612,0,22.835,10.227,22.835,22.835
			c0,12.613-10.223,22.835-22.835,22.835c-12.613,0-22.836-10.227-22.836-22.835C380.912,225.619,391.135,215.392,403.748,215.392z
			 M292.895,349.945c9.151,0,16.571,7.421,16.571,16.572c0,9.15-7.42,16.571-16.571,16.571s-16.572-7.421-16.572-16.571
			C276.323,357.361,283.743,349.945,292.895,349.945z M182.041,215.392c12.613,0,22.835,10.227,22.835,22.835
			c0,12.613-10.227,22.835-22.835,22.835c-12.613,0-22.835-10.227-22.835-22.835C159.206,225.619,169.428,215.392,182.041,215.392z
			 M466.784,372.001c-6.283,1.927-12.934-1.602-14.865-7.879c-0.005,0-17.786-57.978-17.786-57.978
			c-0.105-0.244-0.636-1.263-1.879-1.263c-0.115,0-2.506,0-2.506,0h-0.005c-0.707-0.01-1.118,0.593-0.932,1.271l35.601,116.505
			c0.191,0.68,0,1.865-1.238,1.865h-24.982c-0.707,0-1.224,0.573-1.224,1.281c0,0,0.005,84.877,0.005,84.905
			c0,8.478-6.871,15.348-15.348,15.348c-8.478,0-15.348-6.87-15.348-15.348l-0.005-84.905c0-0.708-0.574-1.281-1.276-1.281h-0.02
			h-2.453h-0.019c-0.708,0-1.277,0.573-1.277,1.281l-0.004,84.905c0,8.478-6.871,15.348-15.349,15.348
			c-8.477,0-15.348-6.87-15.348-15.348c0-0.028,0.005-84.905,0.005-84.905c0-0.708-0.517-1.281-1.224-1.281h-24.973
			c-1.238,0-1.43-1.186-1.238-1.865l35.602-116.504c0.187-0.68-0.226-1.282-0.933-1.272h-0.005c0,0-2.391,0-2.506,0
			c-1.243,0-1.773,1.019-1.879,1.263c0,0-19.526,63.949-19.531,63.949c-0.368,1.195-0.908,2.285-1.578,3.261
			c-3.418,6.12-26.822,48.013-26.822,48.013c-0.33,0.598-0.603,2.319-0.603,2.319s-0.048,88.271-0.119,88.95
			c-0.779,6.972-7.091,13.416-14.779,13.416c-8.138,0-14.052-6.784-14.167-14.205l-0.014-37.618c0-0.685-0.555-1.238-1.239-1.238
			h-1.874c-0.684,0-1.238,0.554-1.238,1.238l-0.005,37.423c-0.119,7.425-7.454,14.4-15.591,14.4s-14.602-7.019-14.722-14.443
			v-89.376c0-0.685-0.277-1.717-0.622-2.31l-26.828-46.426c-0.722-1.014-1.305-2.156-1.692-3.414
			c-0.005,0-19.531-63.949-19.531-63.949c-0.105-0.244-0.636-1.263-1.879-1.263c-0.115,0-2.505,0-2.505,0h-0.004
			c-0.708-0.009-1.119,0.593-0.933,1.272l35.601,116.505c0.191,0.679,0,1.864-1.238,1.864H216.49c-0.708,0-1.224,0.574-1.224,1.281
			c0,0,0.005,84.877,0.005,84.905c0,8.478-6.871,15.349-15.348,15.349c-8.477,0-15.348-6.871-15.348-15.349l-0.005-84.905
			c0-0.707-0.574-1.276-1.281-1.276h-0.019h-2.453h-0.02c-0.708,0-1.276,0.573-1.276,1.276l-0.005,84.905
			c0,8.478-6.871,15.349-15.348,15.349s-15.348-6.871-15.348-15.349c0-0.028,0.004-84.905,0.004-84.905
			c0-0.707-0.516-1.281-1.224-1.281h-24.973c-1.238,0-1.43-1.186-1.238-1.864l35.601-116.505c0.187-0.679-0.225-1.281-0.932-1.272
			h-0.005c0,0-2.391,0-2.505,0c-1.243,0-1.774,1.019-1.879,1.263c0,0-17.782,57.978-17.787,57.978
			c-1.932,6.277-8.582,9.807-14.865,7.88c-6.283-1.928-9.816-8.583-7.889-14.87c0.005-0.024,17.772-58.03,17.83-58.23
			c2.72-9.448,9.342-30.968,28.042-30.968h50.165c20.072,0,25.264,21.516,27.98,30.968c0,0,16.185,53.086,19.12,62.706
			c2.295,4.025,15.754,27.606,15.754,27.606c0.339,0.593,1.171,1.071,1.85,1.071h41.692c1.464,0,2.243-0.469,2.936-1.664
			l14.985-27.01c0.043-0.086,0.091-0.172,0.134-0.258c3.127-10.256,19.043-62.452,19.043-62.452
			c2.721-9.448,7.908-30.968,27.98-30.968h50.165c18.699,0,25.321,21.516,28.042,30.968c0.057,0.2,17.824,58.206,17.829,58.23
			C476.6,363.419,473.066,370.074,466.784,372.001z"/>
	</g>
</g>
<g>
</g>
<g>
</g>
<g>
</g>
<g>
</g>
<g>
</g>
<g>
</g>
<g>
</g>
<g>
</g>
<g>
</g>
<g>
</g>
<g>
</g>
<g>
</g>
<g>
</g>
<g>
</g>
<g>
</g>
</svg>
